{
  "accessors": [
    {
      "bufferView": 2,
      "componentType": 5126,
      "count": 3462,
      "max": [
        2.03054141998291,
        0.4848673343658447,
        2.986013412475586
      ],
      "min": [
        -2.0305416584014893,
        -1.0496350526809692,
        -1.9841864109039307
      ],
      "type": "VEC3"
    },
    {
      "bufferView": 2,
      "byteOffset": 41544,
      "componentType": 5126,
      "count": 3462,
      "max": [
        1.0,
        1.0,
        1.0
      ],
      "min": [
        -1.0,
        -1.0,
        -1.0
      ],
      "type": "VEC3"
    },
    {
      "bufferView": 1,
      "componentType": 5126,
      "count": 3462,
      "max": [
        0.959193229675293,
        0.9950993657112122
      ],
      "min": [
        0.004900657571852207,
        0.004900657571852207
      ],
      "type": "VEC2"
    },
    {
      "bufferView": 0,
      "componentType": 5125,
      "count": 10008,
      "type": "SCALAR"
    },
    {
      "bufferView": 2,
      "byteOffset": 83088,
      "componentType": 5126,
      "count": 2946,
      "max": [
        2.0450522899627686,
        0.4997914433479309,
        3.0006163120269775
      ],
      "min": [
        -2.0450525283813477,
        -1.069635033607483,
        -1.9987893104553223
      ],
      "type": "VEC3"
    },
    {
      "bufferView": 2,
      "byteOffset": 118440,
      "componentType": 5126,
      "count": 2946,
      "max": [
        0.9999986886978149,
        1.0,
        0.9999986886978149
      ],
      "min": [
        -0.9999986886978149,
        -1.0,
        -0.9999986886978149
      ],
      "type": "VEC3"
    },
    {
      "bufferView": 1,
      "byteOffset": 27696,
      "componentType": 5126,
      "count": 2946,
      "max": [
        0.959193229675293,
        0.9950993657112122
      ],
      "min": [
        0.004900657571852207,
        0.004900657571852207
      ],
      "type": "VEC2"
    },
    {
      "bufferView": 0,
      "byteOffset": 40032,
      "componentType": 5125,
      "count": 8664,
      "type": "SCALAR"
    }
  ],
  "asset": {
    "extras": {
      "author": "GiraffeTail (https://sketchfab.com/GiraffeTail)",
      "license": "CC-BY-4.0 (http://creativecommons.org/licenses/by/4.0/)",
      "source": "https://sketchfab.com/3d-models/vinyl-record-player-aab1ecd2ccb34bfbac7c6e21a1d6f910",
      "title": "vinyl record player"
    },
    "generator": "Sketchfab-14.10.0",
    "version": "2.0"
  },
  "bufferViews": [
    {
      "buffer": 0,
      "byteLength": 74688,
      "name": "floatBufferViews",
      "target": 34963
    },
    {
      "buffer": 0,
      "byteLength": 51264,
      "byteOffset": 74688,
      "byteStride": 8,
      "name": "floatBufferViews",
      "target": 34962
    },
    {
      "buffer": 0,
      "byteLength": 153792,
      "byteOffset": 125952,
      "byteStride": 12,
      "name": "floatBufferViews",
      "target": 34962
    }
  ],
  "buffers": [
    {
      "byteLength": 279744,
      "uri": "scene.bin"
    }
  ],
  "images": [
    {
      "uri": "textures/Material.001_baseColor.png"
    }
  ],
  "materials": [
    {
      "doubleSided": true,
      "name": "Material.001",
      "pbrMetallicRoughness": {
        "baseColorTexture": {
          "index": 0
        },
        "metallicFactor": 0.0
      }
    },
    {
      "name": "Material.002",
      "pbrMetallicRoughness": {
        "baseColorFactor": [
          0.0,
          0.0,
          0.0,
          1.0
        ],
        "metallicFactor": 0.0
      }
    }
  ],
  "meshes": [
    {
      "name": "Object_0",
      "primitives": [
        {
          "attributes": {
            "NORMAL": 1,
            "POSITION": 0,
            "TEXCOORD_0": 2
          },
          "indices": 3,
          "material": 0,
          "mode": 4
        }
      ]
    },
    {
      "name": "Object_1",
      "primitives": [
        {
          "attributes": {
            "NORMAL": 5,
            "POSITION": 4,
            "TEXCOORD_0": 6
          },
          "indices": 7,
          "material": 1,
          "mode": 4
        }
      ]
    }
  ],
  "nodes": [
    {
      "children": [
        1
      ],
      "matrix": [
        1.0,
        0.0,
        0.0,
        0.0,
        0.0,
        2.220446049250313e-16,
        -1.0,
        0.0,
        0.0,
        1.0,
        2.220446049250313e-16,
        0.0,
        0.0,
        0.0,
        0.0,
        1.0
      ],
      "name": "Sketchfab_model"
    },
    {
      "children": [
        2
      ],
      "name": "root"
    },
    {
      "children": [
        3
      ],
      "matrix": [
        1.0,
        0.0,
        0.0,
        0.0,
        0.0,
        2.220446049250313e-16,
        1.0,
        0.0,
        0.0,
        -1.0,
        2.220446049250313e-16,
        0.0,
        0.0,
        0.0,
        0.0,
        1.0
      ],
      "name": "GLTF_SceneRootNode"
    },
    {
      "children": [
        4,
        5
      ],
      "matrix": [
        1.0,
        0.0,
        0.0,
        0.0,
        0.0,
        1.0,
        0.0,
        0.0,
        -0.0,
        -0.0,
        -1.0,
        -0.0,
        0.0,
        4.389081954956055,
        -0.5009136199951172,
        1.0
      ],
      "name": "Circle_0"
    },
    {
      "mesh": 0,
      "name": "Object_4"
    },
    {
      "mesh": 1,
      "name": "Object_5"
    }
  ],
  "samplers": [
    {
      "magFilter": 9729,
      "minFilter": 9987,
      "wrapS": 10497,
      "wrapT": 10497
    }
  ],
  "scene": 0,
  "scenes": [
    {
      "name": "Sketchfab_Scene",
      "nodes": [
        0
      ]
    }
  ],
  "textures": [
    {
      "sampler": 0,
      "source": 0
    }
  ]
}
