<svg xmlns="http://www.w3.org/2000/svg" version="1.1" xmlns:xlink="http://www.w3.org/1999/xlink" xmlns:svgjs="http://svgjs.dev/svgjs" width="1500" height="1500" viewBox="0 0 1500 1500"><rect width="1500" height="1500" fill="#ffffff"></rect><g transform="matrix(0.6666666666666666,0,0,0.6666666666666666,250,250)"><svg viewBox="0 0 280 280" data-background-color="#3d2200" preserveAspectRatio="xMidYMid meet" height="1500" width="1500" xmlns="http://www.w3.org/2000/svg" xmlns:xlink="http://www.w3.org/1999/xlink"><g id="tight-bounds" transform="matrix(1,0,0,1,0,0)"><svg viewBox="0 0 280 280" height="280" width="280"><g><svg viewBox="0 0 280 280" height="280" width="280"><g><svg viewBox="0 0 280 280" height="280" width="280"><g id="textblocktransform"><svg viewBox="0 0 280 280" height="280" width="280" id="textblock"><g><svg viewBox="0 0 280 280" height="280" width="280"><g transform="matrix(1,0,0,1,74.00336708925556,74.00336708925556)"><svg viewBox="0 0 131.99326582148888 131.99326582148888" height="131.99326582148888" width="131.99326582148888"><g id="icon-0"><svg xmlns="http://www.w3.org/2000/svg" xml:space="preserve" viewBox="0 0 100 100" x="0" y="0" height="131.99326582148888" width="131.99326582148888" class="icon-jxe-0" data-fill-palette-color="accent" id="jxe-0"><path d="M50 0C22.386 0 0 22.386 0 50s22.386 50 50 50 50-22.386 50-50S77.614 0 50 0m0 14.156C69.799 14.156 85.844 30.2 85.844 50c0 19.799-16.045 35.844-35.844 35.844S14.156 69.799 14.156 50 30.201 14.156 50 14.156m0 5.969c-16.505 0-29.875 13.37-29.875 29.875S33.495 79.875 50 79.875 79.875 66.505 79.875 50 66.505 20.125 50 20.125m0 9.625c11.178 0 20.25 9.072 20.25 20.25S61.178 70.25 50 70.25 29.75 61.178 29.75 50 38.822 29.75 50 29.75" fill="#000000" data-fill-palette-color="accent"></path></svg></g></svg></g><g id="text-0"><path d="M11.993 100.503l0.456-3.238 19.597 5.806c2.332 0.691 4.128 1.686 5.388 2.985 1.259 1.305 2.137 3.015 2.635 5.13v0l-3.225 0.783c-0.235-0.92-0.56-1.708-0.975-2.366-0.409-0.656-0.888-1.213-1.438-1.671-0.556-0.46-1.15-0.838-1.782-1.135-0.624-0.301-1.273-0.552-1.947-0.751v0zM6.184 99.46v0c-0.599-0.177-1.037-0.527-1.315-1.048-0.286-0.517-0.34-1.074-0.162-1.673v0c0.183-0.618 0.54-1.081 1.07-1.39 0.524-0.311 1.085-0.378 1.684-0.2v0c0.592 0.176 1.027 0.537 1.303 1.086 0.27 0.546 0.314 1.128 0.131 1.745v0c-0.177 0.599-0.523 1.038-1.038 1.317-0.523 0.284-1.08 0.338-1.673 0.163z" fill="#000000" data-fill-palette-color="primary"></path><path d="M94.181 28.703l-2.035-4.142c-0.472 0.261-0.921 0.511-1.345 0.75-0.425 0.238-0.841 0.479-1.249 0.723-0.401 0.241-0.762 0.47-1.081 0.685v0c-1.639 1.076-2.686 2.067-3.142 2.972-0.459 0.899-0.438 1.859 0.064 2.88v0c0.415 0.844 0.986 1.35 1.714 1.52 0.734 0.167 1.522 0.043 2.366-0.372v0c1.162-0.571 2.099-1.281 2.81-2.128 0.711-0.848 1.344-1.81 1.898-2.888zM96.74 33.081l-1.346-1.821c-0.817 1.214-1.616 2.263-2.398 3.145-0.785 0.877-1.747 1.595-2.886 2.154v0c-1.622 0.797-3.107 1.04-4.454 0.728-1.341-0.315-2.458-1.381-3.351-3.198v0c-0.467-0.95-0.631-1.895-0.492-2.834 0.139-0.94 0.487-1.84 1.046-2.701 0.553-0.858 1.262-1.664 2.129-2.419 0.861-0.753 1.793-1.419 2.796-2v0c0.41-0.268 0.958-0.592 1.642-0.972 0.685-0.38 1.216-0.678 1.594-0.893v0c-0.417-0.849-0.814-1.596-1.189-2.24-0.375-0.643-0.799-1.142-1.272-1.495-0.474-0.353-1.006-0.535-1.597-0.544-0.591-0.01-1.323 0.2-2.196 0.629v0c-0.702 0.345-1.359 0.723-1.97 1.133-0.614 0.404-1.152 0.778-1.613 1.122v0c-0.547 0.422-1.038 0.832-1.472 1.229v0l-1.819-2.226c0.538-0.44 1.128-0.895 1.768-1.364v0c0.55-0.417 1.201-0.865 1.954-1.345 0.756-0.474 1.597-0.939 2.523-1.393v0c1.233-0.606 2.318-0.916 3.256-0.93 0.947-0.011 1.782 0.19 2.505 0.603 0.726 0.405 1.363 0.963 1.911 1.676 0.545 0.706 1.032 1.496 1.461 2.369v0l4.284 8.716c0.168 0.342 0.351 0.699 0.548 1.071 0.194 0.366 0.399 0.723 0.614 1.071 0.212 0.342 0.438 0.697 0.676 1.063v0z" fill="#000000" data-fill-palette-color="primary"></path><path d="M197.514 34.926l-0.568 2.72c-0.645-0.091-1.294-0.211-1.95-0.357-0.661-0.15-1.376-0.342-2.143-0.576-0.767-0.234-1.543-0.53-2.326-0.887v0c-1.232-0.562-2.297-1.253-3.194-2.073-0.901-0.829-1.57-1.802-2.007-2.919-0.437-1.117-0.607-2.386-0.508-3.808 0.102-1.427 0.554-3.023 1.359-4.787v0c0.728-1.597 1.59-2.902 2.585-3.914 0.99-1.015 2.062-1.758 3.216-2.23 1.148-0.474 2.339-0.678 3.574-0.614 1.232 0.056 2.46 0.363 3.686 0.922v0c1.208 0.551 2.146 1.26 2.812 2.127 0.673 0.87 1.118 1.835 1.336 2.895 0.209 1.063 0.211 2.191 0.007 3.383-0.201 1.201-0.57 2.391-1.107 3.57v0l-1.296 1.37-11.897-5.421c-0.346 0.76-0.594 1.564-0.742 2.413-0.149 0.85-0.124 1.691 0.073 2.526 0.198 0.834 0.597 1.615 1.196 2.344 0.597 0.734 1.473 1.365 2.628 1.891v0c0.736 0.335 1.431 0.601 2.085 0.798 0.657 0.191 1.237 0.336 1.74 0.436 0.506 0.094 0.987 0.157 1.441 0.191zM190.276 22.016l9.286 4.232c0.079-0.173 0.213-0.571 0.403-1.192 0.198-0.625 0.308-1.319 0.331-2.082 0.02-0.757-0.139-1.519-0.475-2.286-0.333-0.759-0.966-1.351-1.9-1.776v0c-1.035-0.472-1.979-0.642-2.833-0.511-0.86 0.128-1.621 0.395-2.283 0.802-0.665 0.412-1.209 0.894-1.634 1.444-0.428 0.542-0.726 0.998-0.895 1.369z" fill="#000000" data-fill-palette-color="primary"></path><path d="M249.836 103.447l28.81-9.443 1.354 2.96-29.157 9.556z" fill="#000000" data-fill-palette-color="primary"></path><path d="M5.101 138.485c0-6.473 5.248-11.721 11.721-11.721 6.473 0 11.721 5.248 11.721 11.721 0 6.473-5.248 11.721-11.721 11.721-6.473 0-11.721-5.248-11.721-11.721z" fill="#000000" data-fill-palette-color="primary"></path><path d="M253.569 138.485c0-6.473 5.248-11.721 11.721-11.721 6.473 0 11.721 5.248 11.721 11.721 0 6.473-5.248 11.721-11.721 11.721-6.473 0-11.721-5.248-11.721-11.721z" fill="#000000" data-fill-palette-color="primary"></path></g><g id="text-1"><path d="M32.617 170.656l1.544 3.294-21.758 6.529c-2.588 0.776-4.864 0.942-6.831 0.495-1.96-0.448-3.817-1.504-5.572-3.166v0l2.53-2.684c0.775 0.708 1.553 1.243 2.334 1.605 0.779 0.356 1.567 0.58 2.363 0.671 0.796 0.091 1.576 0.083 2.341-0.023 0.772-0.101 1.53-0.264 2.273-0.487v0zM38.652 168.094v0c0.661-0.198 1.281-0.144 1.861 0.162 0.581 0.313 0.971 0.8 1.169 1.461v0c0.206 0.686 0.157 1.336-0.146 1.948-0.305 0.606-0.789 1.009-1.45 1.207v0c-0.661 0.198-1.283 0.128-1.865-0.212-0.591-0.344-0.989-0.86-1.195-1.546v0c-0.198-0.661-0.141-1.282 0.172-1.863 0.308-0.573 0.793-0.959 1.454-1.157z" fill="#000000" data-fill-palette-color="secondary"></path><path d="M89.492 258.718l2.271-4.596c-0.548-0.241-1.071-0.467-1.569-0.676-0.498-0.209-0.991-0.413-1.48-0.611-0.492-0.192-0.939-0.354-1.343-0.487v0c-2.055-0.707-3.635-0.96-4.739-0.758-1.107 0.208-1.939 0.875-2.495 2.001v0c-0.466 0.943-0.526 1.793-0.182 2.549 0.345 0.757 0.988 1.368 1.932 1.834v0c1.291 0.638 2.549 0.984 3.775 1.04 1.229 0.05 2.506-0.049 3.83-0.296zM87.361 263.945l0.698-2.415c-1.625 0.099-3.092 0.1-4.4 0.003-1.303-0.094-2.588-0.453-3.855-1.079v0c-1.803-0.891-3.02-2.034-3.65-3.431-0.63-1.396-0.446-3.105 0.553-5.126v0c0.515-1.043 1.235-1.824 2.158-2.343 0.921-0.513 1.949-0.815 3.087-0.906 1.131-0.094 2.321-0.016 3.568 0.234 1.248 0.25 2.469 0.619 3.666 1.107v0c0.515 0.189 1.172 0.454 1.97 0.798 0.798 0.343 1.42 0.606 1.865 0.789v0c0.463-0.937 0.851-1.79 1.165-2.559 0.311-0.763 0.46-1.473 0.448-2.132-0.006-0.656-0.204-1.248-0.595-1.778-0.393-0.524-1.076-1.027-2.049-1.507v0c-0.778-0.384-1.553-0.708-2.324-0.973-0.771-0.264-1.466-0.482-2.084-0.655v0c-0.739-0.196-1.43-0.355-2.075-0.475v0l0.73-3.104c0.75 0.173 1.548 0.384 2.393 0.633v0c0.739 0.196 1.576 0.467 2.513 0.812 0.936 0.345 1.914 0.77 2.934 1.273v0c1.373 0.678 2.381 1.429 3.023 2.252 0.651 0.82 1.043 1.688 1.176 2.605 0.131 0.922 0.069 1.863-0.185 2.823-0.26 0.957-0.63 1.921-1.11 2.894v0l-4.782 9.679c-0.186 0.377-0.373 0.776-0.559 1.198-0.195 0.424-0.372 0.85-0.531 1.277-0.163 0.418-0.321 0.857-0.475 1.316v0z" fill="#000000" data-fill-palette-color="secondary"></path><path d="M204.364 255.071l1.854 2.46c-0.541 0.477-1.116 0.937-1.723 1.379-0.608 0.442-1.288 0.899-2.042 1.371-0.759 0.475-1.575 0.911-2.449 1.308v0c-1.364 0.62-2.72 1.005-4.067 1.154-1.344 0.156-2.646 0.007-3.906-0.445-1.257-0.447-2.447-1.231-3.57-2.352-1.117-1.124-2.123-2.671-3.018-4.64v0c-0.805-1.771-1.269-3.445-1.392-5.02-0.124-1.575 0.037-3.017 0.483-4.324 0.446-1.307 1.141-2.453 2.087-3.439 0.949-0.994 2.109-1.803 3.479-2.425v0c1.335-0.606 2.611-0.872 3.829-0.798 1.224 0.072 2.357 0.405 3.4 1.001 1.043 0.595 1.993 1.416 2.851 2.462 0.85 1.044 1.572 2.221 2.168 3.531v0l0.209 2.082-13.232 6.011c0.383 0.844 0.876 1.642 1.478 2.394 0.605 0.743 1.328 1.335 2.171 1.775 0.843 0.44 1.788 0.678 2.837 0.714 1.055 0.033 2.226-0.242 3.512-0.826v0c0.82-0.372 1.549-0.762 2.188-1.168 0.639-0.406 1.181-0.786 1.626-1.139 0.454-0.351 0.863-0.706 1.227-1.066zM188.251 251.713l10.323-4.69c-0.087-0.192-0.319-0.599-0.695-1.222-0.38-0.614-0.882-1.209-1.505-1.785-0.62-0.57-1.372-0.994-2.256-1.271-0.881-0.271-1.842-0.17-2.884 0.303v0c-1.143 0.519-1.978 1.184-2.505 1.994-0.519 0.813-0.847 1.648-0.985 2.504-0.141 0.851-0.137 1.654 0.012 2.41 0.142 0.758 0.307 1.344 0.495 1.757z" fill="#000000" data-fill-palette-color="secondary"></path><path d="M270.029 180.943l-31.953-10.71 0.76-3.541 32.337 10.838z" fill="#000000" data-fill-palette-color="secondary"></path></g></svg></g></svg></g></svg></g><g></g></svg></g><defs></defs></svg><rect width="280" height="280" fill="none" stroke="none" visibility="hidden"></rect></g></svg></g></svg>